<svg width="512" height="512" viewBox="0 0 512 512" fill="none" xmlns="http://www.w3.org/2000/svg">
<g clip-path="url(#clip0_208_3)">
<path d="M216.062 -0.562472C220 2.81506e-05 220 2.81334e-05 222.437 1.87503C225.142 5.5534 225.118 7.76852 225.097 12.3203C225.094 13.5772 225.091 14.834 225.088 16.1289C225.079 17.4476 225.071 18.7664 225.062 20.125C225.057 21.4649 225.053 22.8047 225.048 24.1446C225.037 27.4298 225.02 30.7149 225 34C226.732 33.9765 226.732 33.9765 228.5 33.9524C232.796 33.898 237.092 33.8636 241.388 33.8352C243.245 33.8202 245.102 33.7997 246.96 33.7737C249.633 33.7372 252.306 33.7203 254.98 33.7071C256.221 33.6838 256.221 33.6838 257.487 33.6601C262.127 33.6588 265.294 33.8873 269 37C271.932 40.6756 271.25 45.4506 271.195 49.9219C271.192 50.7819 271.189 51.6419 271.186 52.5279C271.175 55.2688 271.15 58.0093 271.125 60.75C271.115 62.6107 271.105 64.4714 271.097 66.3321C271.075 70.8882 271.041 75.444 271 80C276.28 80 281.56 80 287 80C286.984 78.8448 286.968 77.6895 286.952 76.4993C286.898 72.2036 286.863 67.908 286.835 63.6121C286.82 61.7546 286.799 59.8972 286.773 58.0398C286.737 55.3663 286.72 52.6933 286.707 50.0196C286.691 49.1923 286.676 48.365 286.66 47.5127C286.658 42.8725 286.887 39.7052 290 36C293.515 33.6809 296.604 33.7463 300.749 33.7393C301.427 33.7355 302.104 33.7317 302.803 33.7277C305.073 33.7174 307.343 33.7214 309.613 33.7254C311.241 33.721 312.869 33.7158 314.496 33.7099C318.918 33.6965 323.339 33.6959 327.761 33.6984C331.451 33.6995 335.142 33.6946 338.832 33.6898C347.538 33.6787 356.244 33.6783 364.95 33.6844C373.933 33.6904 382.915 33.6781 391.898 33.6568C399.61 33.6392 407.321 33.6332 415.032 33.6364C419.639 33.6382 424.245 33.6356 428.851 33.6217C433.182 33.6091 437.513 33.6111 441.845 33.6241C443.434 33.6265 445.024 33.6237 446.613 33.6155C448.783 33.605 450.953 33.6131 453.123 33.6258C454.338 33.6256 455.552 33.6255 456.803 33.6253C460.308 34.0362 462.195 34.894 465 37C466.498 39.9961 466.135 43.0667 466.123 46.352C466.124 47.1225 466.125 47.8931 466.126 48.6869C466.129 51.296 466.124 53.905 466.12 56.5141C466.12 58.3926 466.121 60.2711 466.122 62.1496C466.125 67.3328 466.121 72.516 466.116 77.6992C466.111 83.2807 466.113 88.8622 466.114 94.4436C466.114 104.121 466.111 113.798 466.105 123.476C466.097 137.468 466.095 151.46 466.093 165.451C466.091 188.15 466.085 210.849 466.075 233.548C466.066 255.603 466.059 277.658 466.055 299.713C466.054 300.392 466.054 301.072 466.054 301.772C466.053 308.596 466.052 315.42 466.05 322.244C466.04 379.496 466.022 436.748 466 494C467.097 493.965 468.194 493.93 469.324 493.895C470.778 493.866 472.233 493.839 473.687 493.813C474.769 493.775 474.769 493.775 475.873 493.736C480.488 493.673 483.321 494.181 487 497C489.392 499.393 489.32 500.095 489.375 503.375C489.403 504.146 489.431 504.917 489.461 505.711C488.805 508.965 487.621 509.978 485 512C482.318 512.392 480.046 512.538 477.366 512.503C476.201 512.512 476.201 512.512 475.012 512.521C472.394 512.536 469.776 512.522 467.158 512.508C465.268 512.513 463.379 512.519 461.489 512.527C456.284 512.544 451.079 512.535 445.873 512.523C440.264 512.514 434.656 512.528 429.047 512.539C418.054 512.557 407.062 512.553 396.07 512.541C387.139 512.532 378.208 512.531 369.276 512.535C368.007 512.536 366.738 512.536 365.43 512.537C362.851 512.538 360.273 512.54 357.694 512.541C334.186 512.552 310.678 512.541 287.169 512.52C265.7 512.501 244.23 512.502 222.76 512.521C198.65 512.543 174.54 512.551 150.43 512.539C147.861 512.538 145.292 512.537 142.723 512.535C141.459 512.535 140.194 512.534 138.892 512.533C129.968 512.53 121.044 512.536 112.12 512.545C101.25 512.556 90.3799 512.553 79.5098 512.532C73.96 512.522 68.4104 512.517 62.8605 512.531C57.7853 512.543 52.7104 512.536 47.6351 512.515C45.794 512.51 43.9528 512.513 42.1117 512.522C39.6185 512.534 37.1266 512.522 34.6334 512.503C33.9103 512.513 33.1871 512.522 32.4421 512.532C29.0328 512.48 27.2866 512.222 24.5557 510.107C22.2822 507.028 22.4403 504.836 22.6051 501.125C22.9996 499 22.9996 499 24.8121 496.5C29.0892 493.567 33.2072 493.881 38.1871 493.938C38.9367 493.942 39.6863 493.947 40.4586 493.951C42.3056 493.963 44.1526 493.981 45.9996 494C45.9977 493.305 45.9958 492.611 45.9939 491.895C45.882 450.752 45.7962 409.609 45.7443 368.466C45.738 363.529 45.7316 358.593 45.725 353.656C45.7236 352.673 45.7223 351.69 45.721 350.677C45.6992 334.75 45.6598 318.822 45.6139 302.895C45.5671 286.559 45.5393 270.224 45.5292 253.888C45.5223 243.803 45.5006 233.718 45.46 223.633C45.4337 216.724 45.4256 209.814 45.4321 202.904C45.4353 198.914 45.4303 194.924 45.4036 190.933C45.3793 187.283 45.378 183.633 45.3951 179.982C45.3983 178.03 45.3766 176.079 45.3542 174.127C45.3642 172.973 45.3741 171.819 45.3844 170.63C45.3825 169.632 45.3806 168.635 45.3786 167.606C46.2417 163.984 47.9029 162.941 50.9996 161C53.631 160.633 55.8313 160.491 58.452 160.546C59.1843 160.545 59.9165 160.545 60.6709 160.544C63.0792 160.547 65.4861 160.578 67.8941 160.609C69.5685 160.617 71.2429 160.623 72.9173 160.627C77.3151 160.642 81.7124 160.681 86.1101 160.725C90.6012 160.766 95.0924 160.785 99.5836 160.805C108.389 160.848 117.194 160.916 126 161C125.99 159.626 125.99 159.626 125.979 158.224C125.919 149.588 125.874 140.951 125.844 132.314C125.829 127.874 125.807 123.434 125.773 118.993C125.741 114.708 125.723 110.422 125.715 106.136C125.709 104.502 125.699 102.867 125.682 101.233C125.661 98.9421 125.658 96.6518 125.659 94.3606C125.649 92.4054 125.649 92.4054 125.639 90.4106C126.024 86.7681 126.821 84.9061 129 82C132.325 79.5715 135.49 79.7681 139.515 79.8047C140.766 79.8112 142.016 79.8176 143.304 79.8242C144.606 79.841 145.908 79.8578 147.25 79.875C148.567 79.8841 149.884 79.8931 151.242 79.9024C154.495 79.9259 157.747 79.9589 161 80C160.979 78.779 160.958 77.5579 160.936 76.2998C160.864 71.7676 160.818 67.2353 160.78 62.7027C160.76 60.7413 160.732 58.78 160.698 56.8189C160.649 53.9989 160.627 51.1797 160.609 48.3594C160.588 47.4832 160.568 46.607 160.546 45.7043C160.544 39.6048 160.544 39.6048 162.899 36.4776C167.146 33.4903 170.91 33.8723 175.945 33.9024C176.83 33.9038 177.715 33.9052 178.627 33.9067C181.459 33.9123 184.292 33.9248 187.125 33.9375C189.043 33.9425 190.961 33.9471 192.879 33.9512C197.586 33.9622 202.293 33.9795 207 34C206.973 33.1477 206.947 32.2954 206.92 31.4173C206.835 28.2398 206.772 25.0628 206.725 21.8846C206.7 20.512 206.666 19.1395 206.622 17.7674C206.561 15.7895 206.536 13.8107 206.511 11.8321C206.485 10.6433 206.459 9.45455 206.432 8.22976C207.318 3.18906 210.676 -0.744492 216.062 -0.562472ZM179 52C179 61.24 179 70.48 179 80C203.42 80 227.84 80 253 80C253 70.76 253 61.52 253 52C228.58 52 204.16 52 179 52ZM305 52C305 121.96 305 191.92 305 264C314.24 264 323.48 264 333 264C333.99 261.36 334.98 258.72 336 256C338 254 338 254 341.875 253.625C344.885 253.712 345.852 253.902 348.437 255.625C350 258 350 258 351 264C356.61 264 362.22 264 368 264C368.99 260.04 368.99 260.04 370 256C373.025 253.983 373.61 253.742 377 253.813C377.68 253.819 378.361 253.825 379.062 253.832C381 254 381 254 384 255C385.019 257.706 385.128 260.292 385.138 263.162C385.144 263.989 385.149 264.815 385.155 265.667C385.156 266.57 385.157 267.472 385.158 268.403C385.165 269.847 385.165 269.847 385.173 271.321C385.188 274.556 385.197 277.791 385.205 281.026C385.215 283.342 385.225 285.658 385.235 287.974C385.262 294.269 385.283 300.564 385.303 306.859C385.325 313.435 385.352 320.01 385.379 326.586C385.423 337.626 385.464 348.665 385.502 359.705C385.542 371.075 385.583 382.446 385.627 393.817C385.63 394.518 385.633 395.219 385.636 395.941C385.649 399.457 385.663 402.973 385.677 406.489C385.791 435.66 385.897 464.83 386 494C406.46 494 426.92 494 448 494C448 348.14 448 202.28 448 52C400.81 52 353.62 52 305 52ZM144 98C144 118.79 144 139.58 144 161C152.177 161.091 152.177 161.091 160.519 161.184C163.969 161.224 167.419 161.265 170.869 161.307C176.347 161.373 181.825 161.438 187.303 161.497C191.718 161.545 196.134 161.597 200.549 161.653C202.235 161.673 203.921 161.692 205.608 161.709C207.966 161.733 210.324 161.763 212.682 161.795C213.732 161.803 213.732 161.803 214.803 161.812C217.807 161.858 220.126 162.042 223 163C223.73 165.066 223.73 165.066 224.187 167.563C224.346 168.389 224.504 169.215 224.668 170.066C224.832 171.024 224.832 171.024 225 172C226.241 172.038 226.241 172.038 227.506 172.076C231.254 172.192 235.002 172.315 238.75 172.438C240.052 172.477 241.354 172.516 242.695 172.557C243.945 172.599 245.196 172.64 246.484 172.684C247.636 172.72 248.788 172.757 249.975 172.795C254.828 173.124 254.828 173.124 257 174C258.209 177.627 258.786 181.24 258 185C255.755 187.921 254.557 188.902 250.883 189.546C249.092 189.577 249.092 189.577 247.265 189.609C245.97 189.642 244.674 189.674 243.339 189.707C241.976 189.722 240.613 189.736 239.25 189.75C237.871 189.778 236.492 189.808 235.113 189.84C231.742 189.911 228.371 189.958 225 190C225 199.24 225 208.48 225 218C234.034 218.289 234.034 218.289 243.069 218.568C244.196 218.606 245.323 218.644 246.484 218.684C247.636 218.72 248.788 218.757 249.975 218.795C254.828 219.124 254.828 219.124 257 220C258.209 223.627 258.786 227.24 258 231C255.755 233.921 254.557 234.902 250.883 235.546C249.689 235.567 248.495 235.588 247.265 235.609C245.97 235.642 244.674 235.674 243.339 235.707C241.976 235.722 240.613 235.736 239.25 235.75C237.871 235.778 236.492 235.808 235.113 235.84C231.742 235.911 228.371 235.958 225 236C225 245.24 225 254.48 225 264C245.46 264 265.92 264 287 264C287 209.22 287 154.44 287 98C239.81 98 192.62 98 144 98ZM63.9996 179C63.9996 282.95 63.9996 386.9 63.9996 494C76.8696 494 89.7396 494 103 494C103.249 481.345 103.249 481.345 103.478 468.69C103.513 467.101 103.549 465.511 103.586 463.922C103.597 463.1 103.608 462.279 103.62 461.432C103.817 453.659 103.817 453.659 106 451C109.434 449.364 112.198 448.746 115.986 448.725C116.95 448.716 117.915 448.706 118.909 448.697C119.939 448.697 120.969 448.698 122.031 448.699C123.1 448.695 124.168 448.691 125.269 448.686C127.525 448.681 129.781 448.68 132.037 448.684C135.487 448.688 138.936 448.664 142.386 448.639C144.58 448.636 146.774 448.636 148.968 448.637C150.514 448.623 150.514 448.623 152.091 448.609C157.726 448.645 161.803 448.803 166 453C166.16 456.028 166.259 459.036 166.316 462.066C166.347 463.429 166.347 463.429 166.379 464.82C166.445 467.734 166.503 470.648 166.562 473.563C166.605 475.533 166.649 477.504 166.693 479.475C166.801 484.316 166.9 489.158 167 494C180.2 494 193.4 494 207 494C207 390.05 207 286.1 207 179C159.81 179 112.62 179 63.9996 179ZM225 282C225 351.96 225 421.92 225 494C272.19 494 319.38 494 368 494C368 424.04 368 354.08 368 282C320.81 282 273.62 282 225 282ZM121 466C121 475.24 121 484.48 121 494C122.65 494 124.3 494 126 494C126.049 492.891 126.098 491.783 126.148 490.641C126.223 489.177 126.299 487.714 126.375 486.25C126.421 485.156 126.421 485.156 126.468 484.039C126.849 477.058 126.849 477.058 129 474C131.957 472.275 133.694 471.982 137.125 472.188C140.171 473.048 141.084 473.572 143 476C143.432 477.993 143.432 477.993 143.511 480.23C143.565 481.434 143.565 481.434 143.619 482.662C143.641 483.496 143.664 484.329 143.687 485.188C143.738 486.455 143.738 486.455 143.791 487.748C143.873 489.832 143.938 491.916 144 494C145.65 494 147.3 494 149 494C149 484.76 149 475.52 149 466C139.76 466 130.52 466 121 466Z" fill="#05ADAD"/>
<path d="M331.063 298.437C335 299 335 299 337.438 300.875C340.178 304.601 340.129 306.892 340.141 311.509C340.144 312.185 340.147 312.861 340.15 313.557C340.158 315.834 340.16 318.11 340.161 320.386C340.166 322.014 340.171 323.641 340.176 325.269C340.19 329.699 340.196 334.128 340.201 338.558C340.203 341.325 340.208 344.091 340.212 346.857C340.226 355.509 340.235 364.16 340.239 372.811C340.244 382.805 340.261 392.798 340.29 402.792C340.312 410.512 340.322 418.232 340.323 425.951C340.324 430.564 340.33 435.177 340.348 439.79C340.365 444.129 340.367 448.469 340.358 452.808C340.357 454.401 340.362 455.994 340.371 457.587C340.384 459.761 340.378 461.935 340.368 464.11C340.369 465.327 340.371 466.544 340.372 467.798C339.961 471.336 339.14 473.179 337 476C333.512 478.325 332.099 478.335 328 478C324.658 476.793 324.053 476.079 322 473C321.74 470.005 321.74 470.005 321.726 466.257C321.721 465.568 321.716 464.879 321.71 464.169C321.695 461.854 321.695 459.54 321.694 457.225C321.686 455.568 321.678 453.91 321.669 452.253C321.647 447.747 321.638 443.241 321.633 438.734C321.629 435.92 321.623 433.106 321.616 430.291C321.591 420.475 321.578 410.66 321.575 400.844C321.571 391.69 321.541 382.536 321.499 373.382C321.465 365.526 321.449 357.671 321.449 349.815C321.448 345.122 321.439 340.428 321.411 335.735C321.384 331.321 321.382 326.907 321.398 322.492C321.4 320.872 321.393 319.252 321.377 317.632C321.357 315.42 321.367 313.209 321.386 310.997C321.384 309.759 321.382 308.521 321.379 307.246C322.342 302.214 325.656 298.255 331.063 298.437Z" fill="#05ADAD"/>
<path d="M262.063 298.437C266 299 266 299 268.438 300.812C271.212 304.697 271.129 307.944 271.141 312.591C271.144 313.264 271.147 313.937 271.15 314.63C271.158 316.889 271.16 319.148 271.161 321.408C271.166 323.026 271.171 324.644 271.176 326.261C271.19 330.66 271.196 335.059 271.201 339.458C271.203 342.205 271.208 344.953 271.212 347.7C271.226 356.294 271.235 364.887 271.239 373.481C271.244 383.406 271.261 393.33 271.29 403.255C271.312 410.923 271.322 418.592 271.323 426.261C271.324 430.843 271.33 435.424 271.348 440.006C271.365 444.315 271.367 448.624 271.358 452.933C271.357 454.515 271.362 456.096 271.371 457.677C271.384 459.837 271.378 461.995 271.368 464.155C271.369 465.363 271.371 466.571 271.372 467.816C270.96 471.343 270.132 473.186 268 476C264.512 478.325 263.099 478.335 259 478C255.658 476.793 255.053 476.079 253 473C252.74 470.005 252.74 470.005 252.726 466.257C252.721 465.568 252.716 464.879 252.71 464.169C252.695 461.854 252.695 459.54 252.694 457.225C252.686 455.568 252.678 453.91 252.669 452.253C252.647 447.747 252.638 443.241 252.633 438.734C252.629 435.92 252.623 433.106 252.616 430.291C252.591 420.475 252.578 410.66 252.575 400.844C252.571 391.69 252.541 382.536 252.499 373.382C252.465 365.526 252.449 357.671 252.449 349.815C252.448 345.122 252.439 340.428 252.411 335.735C252.384 331.321 252.382 326.907 252.398 322.492C252.4 320.872 252.393 319.252 252.377 317.632C252.357 315.42 252.367 313.209 252.386 310.997C252.384 309.759 252.382 308.521 252.379 307.246C253.342 302.214 256.656 298.255 262.063 298.437Z" fill="#05ADAD"/>
<path d="M297.832 298.441C301.284 299.331 302.758 301.293 305 304C305.626 307.243 305.626 307.243 305.628 310.99C305.639 312.028 305.639 312.028 305.649 313.086C305.667 315.397 305.649 317.707 305.631 320.018C305.636 321.677 305.643 323.336 305.652 324.996C305.671 329.498 305.658 333.999 305.638 338.501C305.622 343.212 305.631 347.923 305.636 352.633C305.64 360.543 305.625 368.452 305.597 376.362C305.565 385.509 305.565 394.656 305.582 403.803C305.598 412.601 305.591 421.399 305.574 430.196C305.567 433.942 305.568 437.687 305.575 441.432C305.583 445.84 305.571 450.249 305.544 454.657C305.537 456.276 305.537 457.895 305.544 459.514C305.552 461.722 305.537 463.929 305.514 466.137C305.512 467.373 305.509 468.609 305.506 469.882C304.901 473.605 303.99 474.768 301 477C297.097 478.064 294.941 478.397 291.187 476.812C288.821 474.852 288.083 473.84 287 471C286.745 467.945 286.745 467.945 286.739 464.289C286.735 463.615 286.731 462.941 286.727 462.247C286.717 459.991 286.721 457.735 286.725 455.479C286.721 453.861 286.715 452.243 286.71 450.625C286.696 446.23 286.696 441.835 286.698 437.441C286.699 433.773 286.694 430.105 286.689 426.437C286.678 417.783 286.678 409.13 286.684 400.477C286.69 391.549 286.678 382.621 286.656 373.692C286.639 366.027 286.633 358.363 286.636 350.698C286.638 346.12 286.635 341.542 286.621 336.964C286.609 332.659 286.611 328.354 286.624 324.049C286.626 322.469 286.623 320.889 286.615 319.309C286.605 317.152 286.613 314.996 286.625 312.838C286.625 311.631 286.625 310.424 286.625 309.181C287.472 301.993 290.808 298.863 297.832 298.441Z" fill="#05ADAD"/>
<path d="M186.07 125.855C186.786 125.851 187.502 125.848 188.239 125.845C190.606 125.835 192.973 125.833 195.34 125.832C196.985 125.829 198.63 125.825 200.276 125.822C203.725 125.816 207.174 125.814 210.623 125.815C215.043 125.815 219.462 125.801 223.882 125.784C227.28 125.773 230.678 125.771 234.076 125.771C235.705 125.77 237.335 125.766 238.964 125.758C241.243 125.748 243.522 125.751 245.801 125.757C247.746 125.755 247.746 125.755 249.73 125.753C252.823 125.987 254.488 126.242 257 128C259.112 131.168 259.332 133.132 259.559 136.867C258.656 140.312 256.717 141.772 254 144C251.273 144.501 249.164 144.696 246.443 144.663C245.7 144.673 244.956 144.684 244.19 144.694C241.74 144.721 239.293 144.712 236.844 144.699C235.137 144.705 233.429 144.712 231.722 144.721C228.148 144.733 224.574 144.726 221 144.707C216.422 144.684 211.847 144.711 207.27 144.752C203.746 144.777 200.222 144.775 196.698 144.764C195.01 144.762 193.323 144.77 191.636 144.787C189.275 144.807 186.917 144.789 184.557 144.761C183.515 144.781 183.515 144.781 182.453 144.802C179.693 144.736 177.59 144.493 175.436 142.692C173.53 140.489 172.114 138.68 171.625 135.77C172.177 132.889 172.662 130.476 174.375 128.063C178.133 125.606 181.716 125.868 186.07 125.855Z" fill="#05ADAD"/>
<path d="M140 334C142.188 335.43 142.188 335.43 144 338C144.596 341.342 144.558 344.613 144.5 348C144.515 348.902 144.531 349.805 144.547 350.734C144.508 357.282 144.508 357.282 142.184 360.566C139.076 362.607 136.699 362.935 133 363C130.215 361.824 128.604 360.874 126.883 358.383C125.619 354.972 125.671 351.651 125.688 348.063C125.671 347.359 125.655 346.656 125.639 345.932C125.634 341.425 126.257 338.592 129 335C132.555 332.207 135.787 332.947 140 334Z" fill="#05ADAD"/>
<path d="M174 334C176.257 335.891 177.686 337.373 179 340C179.151 342.619 179.231 345.193 179.25 347.813C179.271 348.525 179.291 349.237 179.312 349.971C179.346 354.526 178.787 357.372 176 361C173.326 363.101 171.957 362.999 168.5 362.875C164.469 361.867 163.376 361.37 161 358C160.404 354.658 160.442 351.387 160.5 348C160.485 347.098 160.469 346.195 160.453 345.266C160.492 338.706 160.492 338.706 162.844 335.438C166.83 332.78 169.458 332.795 174 334Z" fill="#05ADAD"/>
<path d="M416 81C418.188 82.4297 418.188 82.4297 420 85C420.596 88.3424 420.558 91.6133 420.5 95C420.515 95.9023 420.531 96.8047 420.547 97.7344C420.508 104.282 420.508 104.282 418.184 107.566C415.076 109.607 412.699 109.935 409 110C406.215 108.824 404.604 107.874 402.883 105.383C401.619 101.972 401.671 98.6506 401.688 95.0625C401.671 94.3593 401.655 93.6561 401.639 92.9316C401.634 88.4248 402.257 85.592 405 82C408.555 79.2071 411.787 79.9467 416 81Z" fill="#05ADAD"/>
<path d="M382 81C384.644 82.8761 384.952 83.8572 386 87C386.148 89.6394 386.231 92.235 386.25 94.875C386.271 95.5827 386.291 96.2904 386.312 97.0195C386.346 101.558 385.773 104.385 383 108C380.326 110.101 378.957 109.998 375.5 109.875C371.469 108.867 370.376 108.37 368 105C367.404 101.658 367.442 98.3867 367.5 95C367.485 94.0976 367.469 93.1953 367.453 92.2656C367.492 85.6828 367.492 85.6828 369.906 82.4375C374.026 79.6089 377.225 79.8844 382 81Z" fill="#05ADAD"/>
<path d="M136.867 390.441C140.444 391.378 141.813 393.06 144 396C144.72 399.188 144.7 402.244 144.625 405.5C144.654 406.763 144.654 406.763 144.684 408.051C144.649 412.449 144.415 414.445 141.715 418.059C137.626 420.983 135.93 420.704 131 420C128.569 418.13 127.359 416.719 126 414C125.875 411.196 125.815 408.429 125.813 405.625C125.8 404.857 125.788 404.088 125.775 403.297C125.757 396.026 125.757 396.026 128 393C131.168 390.888 133.132 390.668 136.867 390.441Z" fill="#05ADAD"/>
<path d="M105 334C107.257 335.891 108.686 337.373 110 340C110.178 342.6 110.277 345.148 110.312 347.75C110.341 348.454 110.37 349.158 110.4 349.883C110.462 355.006 109.491 358.013 106 362C102.627 363.476 99.1414 363.36 95.6248 362.25C93.3212 360.478 92.1076 358.784 91.7093 355.887C91.6602 353.278 91.6285 350.672 91.6248 348.062C91.6003 347.156 91.5758 346.249 91.5506 345.314C91.5212 338.669 91.5212 338.669 93.8357 335.434C97.8305 332.787 100.454 332.794 105 334Z" fill="#05ADAD"/>
<path d="M416 311C418.188 312.43 418.188 312.43 420 315C420.596 318.342 420.558 321.613 420.5 325C420.515 325.902 420.531 326.805 420.547 327.734C420.508 334.282 420.508 334.282 418.184 337.566C415.076 339.607 412.699 339.935 409 340C406.215 338.824 404.604 337.874 402.883 335.383C401.619 331.972 401.671 328.651 401.688 325.063C401.671 324.359 401.655 323.656 401.639 322.932C401.634 318.425 402.257 315.592 405 312C408.555 309.207 411.787 309.947 416 311Z" fill="#05ADAD"/>
<path d="M136.867 275.441C140.444 276.378 141.813 278.06 144 281C144.72 284.188 144.7 287.244 144.625 290.5C144.654 291.763 144.654 291.763 144.684 293.051C144.649 297.449 144.415 299.445 141.715 303.059C137.626 305.983 135.93 305.704 131 305C128.569 303.13 127.359 301.719 126 299C125.875 296.196 125.815 293.429 125.813 290.625C125.8 289.857 125.788 289.088 125.775 288.297C125.757 281.026 125.757 281.026 128 278C131.168 275.888 133.132 275.668 136.867 275.441Z" fill="#05ADAD"/>
<path d="M172.93 218.16C176.36 219.552 177.342 221.772 179 225C179.362 227.853 179.519 230.234 179.438 233.062C179.445 233.757 179.452 234.451 179.459 235.166C179.404 239.608 178.684 242.455 176 246C173.326 248.101 171.957 247.998 168.5 247.875C164.469 246.867 163.376 246.37 161 243C160.404 239.658 160.442 236.387 160.5 233C160.485 232.098 160.469 231.195 160.453 230.266C160.492 223.683 160.492 223.683 162.906 220.437C166.466 217.993 168.595 217.954 172.93 218.16Z" fill="#05ADAD"/>
<path d="M140 219C142.188 220.43 142.188 220.43 144 223C144.596 226.342 144.558 229.613 144.5 233C144.515 233.902 144.531 234.805 144.547 235.734C144.508 242.282 144.508 242.282 142.184 245.566C139.076 247.607 136.699 247.935 133 248C130.215 246.824 128.604 245.874 126.883 243.383C125.619 239.972 125.671 236.651 125.688 233.063C125.671 232.359 125.655 231.656 125.639 230.932C125.634 226.425 126.257 223.592 129 220C132.555 217.207 135.787 217.947 140 219Z" fill="#05ADAD"/>
<path d="M382 196C384.585 197.895 384.963 198.888 386 202C386.148 204.639 386.231 207.235 386.25 209.875C386.271 210.583 386.291 211.29 386.312 212.02C386.346 216.558 385.773 219.385 383 223C380.326 225.101 378.957 224.998 375.5 224.875C371.469 223.867 370.376 223.37 368 220C367.404 216.658 367.442 213.387 367.5 210C367.485 209.098 367.469 208.195 367.453 207.266C367.492 200.706 367.492 200.706 369.844 197.437C374.11 194.593 377.109 194.952 382 196Z" fill="#05ADAD"/>
<path d="M347 196C349.191 197.426 349.191 197.426 351 200C351.595 203.343 351.558 206.613 351.5 210C351.515 210.902 351.53 211.805 351.546 212.734C351.508 219.282 351.508 219.282 349.183 222.566C346.075 224.607 343.698 224.935 340 225C337.213 223.823 335.602 222.877 333.886 220.379C332.623 216.99 332.631 213.694 332.625 210.125C332.6 209.43 332.576 208.735 332.55 208.02C332.521 202.867 333.685 199.913 337 196C340.805 194.731 343.105 195.112 347 196Z" fill="#05ADAD"/>
<path d="M381 138C383.431 139.87 384.641 141.281 386 144C386.125 146.804 386.185 149.571 386.188 152.375C386.2 153.143 386.212 153.912 386.225 154.703C386.243 161.974 386.243 161.974 384 165C380.832 167.112 378.868 167.332 375.133 167.559C371.556 166.622 370.187 164.94 368 162C367.28 158.812 367.3 155.756 367.375 152.5C367.356 151.658 367.336 150.816 367.316 149.949C367.351 145.551 367.586 143.555 370.285 139.941C374.374 137.017 376.071 137.296 381 138Z" fill="#05ADAD"/>
<path d="M347 81C349.188 82.4297 349.188 82.4297 351 85C351.596 88.3424 351.558 91.6133 351.5 95C351.515 95.9023 351.531 96.8047 351.547 97.7344C351.508 104.282 351.508 104.282 349.184 107.566C346.076 109.607 343.699 109.935 340 110C337.215 108.824 335.604 107.874 333.883 105.383C332.619 101.972 332.671 98.6506 332.688 95.0625C332.671 94.3593 332.655 93.6561 332.639 92.9316C332.634 88.4248 333.257 85.592 336 82C339.555 79.2071 342.787 79.9467 347 81Z" fill="#05ADAD"/>
<path d="M105 219C107.318 220.891 108.669 222.338 110 225C110.151 227.619 110.231 230.193 110.25 232.813C110.271 233.525 110.291 234.237 110.312 234.971C110.346 239.526 109.787 242.372 107 246C104.326 248.101 102.957 247.998 99.5 247.875C95.4691 246.867 94.3761 246.37 92 243C91.4044 239.658 91.4419 236.387 91.5 233C91.4845 232.098 91.4691 231.195 91.4531 230.266C91.4921 223.683 91.4921 223.683 93.9062 220.438C97.9758 217.643 100.144 217.912 105 219Z" fill="#05ADAD"/>
<path d="M416 196C418.188 197.43 418.188 197.43 420 200C420.596 203.342 420.558 206.613 420.5 210C420.515 210.902 420.531 211.805 420.547 212.734C420.508 219.282 420.508 219.282 418.184 222.566C415.076 224.607 412.699 224.935 409 225C406.215 223.824 404.604 222.874 402.883 220.383C401.619 216.972 401.671 213.651 401.688 210.063C401.671 209.359 401.655 208.656 401.639 207.932C401.634 203.425 402.257 200.592 405 197C408.555 194.207 411.787 194.947 416 196Z" fill="#05ADAD"/>
<path d="M416 426C418.152 427.43 418.152 427.43 420 430C420.599 433.342 420.558 436.614 420.5 440C420.515 440.902 420.531 441.805 420.547 442.734C420.508 449.282 420.508 449.282 418.184 452.566C415.076 454.607 412.699 454.935 409 455C406.196 453.816 404.591 452.873 402.883 450.348C401.646 447.058 401.698 444.131 401.688 440.625C401.671 439.339 401.654 438.052 401.637 436.727C402.023 432.766 402.91 430.361 405 427C408.825 424.622 411.737 424.73 416 426Z" fill="#05ADAD"/>
<path d="M174 391C176.969 393.207 177.829 394.486 179 398C179.121 400.456 179.175 402.916 179.188 405.375C179.202 406.682 179.216 407.989 179.23 409.336C179.013 412.786 178.648 414.989 177 418C173.832 420.112 171.868 420.332 168.133 420.559C164.556 419.622 163.187 417.94 161 415C160.28 411.812 160.3 408.756 160.375 405.5C160.356 404.658 160.336 403.816 160.316 402.949C160.351 398.551 160.586 396.555 163.285 392.941C167.374 390.017 169.071 390.296 174 391Z" fill="#05ADAD"/>
<path d="M105 391C107.969 393.207 108.829 394.486 110 398C110.121 400.456 110.175 402.916 110.188 405.375C110.202 406.682 110.216 407.989 110.23 409.336C110.013 412.786 109.648 414.989 108 418C104.832 420.112 102.868 420.332 99.1328 420.559C95.5557 419.622 94.1871 417.94 92 415C91.2798 411.812 91.3002 408.756 91.375 405.5C91.3557 404.658 91.3363 403.816 91.3164 402.949C91.351 398.551 91.5855 396.555 94.2852 392.941C98.3741 390.017 100.071 390.296 105 391Z" fill="#05ADAD"/>
<path d="M343.867 137.441C347.444 138.378 348.813 140.06 351 143C351.72 146.188 351.7 149.244 351.625 152.5C351.654 153.763 351.654 153.763 351.684 155.051C351.649 159.449 351.414 161.445 348.715 165.059C344.626 167.983 342.929 167.704 338 167C335.031 164.793 334.171 163.514 333 160C332.879 157.544 332.825 155.084 332.812 152.625C332.798 151.318 332.784 150.011 332.77 148.664C332.987 145.214 333.352 143.011 335 140C338.168 137.888 340.132 137.668 343.867 137.441Z" fill="#05ADAD"/>
<path d="M412.832 367.441C416.435 368.37 417.801 370.039 420 373C420.72 376.188 420.7 379.244 420.625 382.5C420.654 383.763 420.654 383.763 420.684 385.051C420.649 389.449 420.414 391.445 417.715 395.059C413.626 397.983 411.929 397.704 407 397C404.031 394.793 403.171 393.514 402 390C401.853 387.545 401.779 385.085 401.75 382.625C401.724 381.318 401.698 380.011 401.672 378.664C402.337 371.237 405.514 367.88 412.832 367.441Z" fill="#05ADAD"/>
<path d="M174 276C176.969 278.207 177.829 279.486 179 283C179.147 285.455 179.221 287.915 179.25 290.375C179.276 291.682 179.302 292.989 179.328 294.336C178.897 299.152 177.365 301.635 174 305C167.113 305.79 167.113 305.79 163.277 303.066C160.136 298.837 160.257 295.634 160.375 290.5C160.356 289.658 160.336 288.816 160.316 287.949C160.351 283.551 160.586 281.555 163.285 277.941C167.374 275.017 169.071 275.296 174 276Z" fill="#05ADAD"/>
<path d="M105 276C107.969 278.207 108.829 279.486 110 283C110.147 285.455 110.221 287.915 110.25 290.375C110.276 291.682 110.302 292.989 110.328 294.336C109.897 299.152 108.365 301.635 105 305C98.1128 305.79 98.1128 305.79 94.2773 303.066C91.1364 298.837 91.2571 295.634 91.375 290.5C91.3557 289.658 91.3363 288.816 91.3164 287.949C91.351 283.551 91.5855 281.555 94.2852 277.941C98.3741 275.017 100.071 275.296 105 276Z" fill="#05ADAD"/>
<path d="M412.832 252.441C416.435 253.37 417.801 255.039 420 258C420.72 261.188 420.7 264.244 420.625 267.5C420.654 268.763 420.654 268.763 420.684 270.051C420.649 274.449 420.414 276.445 417.715 280.059C413.626 282.983 411.929 282.704 407 282C404.031 279.793 403.171 278.514 402 275C401.853 272.545 401.779 270.085 401.75 267.625C401.724 266.318 401.698 265.011 401.672 263.664C402.337 256.237 405.514 252.88 412.832 252.441Z" fill="#05ADAD"/>
<path d="M412.832 137.441C416.435 138.37 417.801 140.039 420 143C420.72 146.188 420.7 149.244 420.625 152.5C420.654 153.763 420.654 153.763 420.684 155.051C420.649 159.449 420.414 161.445 417.715 165.059C413.626 167.983 411.929 167.704 407 167C404.031 164.793 403.171 163.514 402 160C401.853 157.545 401.779 155.085 401.75 152.625C401.724 151.318 401.698 150.011 401.672 148.664C402.337 141.237 405.514 137.88 412.832 137.441Z" fill="#05ADAD"/>
</g>
<defs>
<clipPath id="clip0_208_3">
<rect width="512" height="512" fill="white"/>
</clipPath>
</defs>
</svg>
